<svg width="20" height="20" viewBox="0 0 20 20" fill="none" xmlns="http://www.w3.org/2000/svg">
<g filter="url(#filter0_d_10_31)">
<path d="M16 6.03651C16 2.70183 13.3145 0 10 0C6.68548 0 4 2.70183 4 6.03651C4 9.04941 6.19411 11.5468 9.0625 12V7.7815H7.53831V6.03651H9.0625V4.70653C9.0625 3.19375 9.95766 2.35813 11.3287 2.35813C11.9853 2.35813 12.6719 2.47594 12.6719 2.47594V3.96073H11.9152C11.17 3.96073 10.9375 4.42613 10.9375 4.90345V6.03651H12.6015L12.3354 7.7815H10.9375V12C13.8059 11.5468 16 9.04941 16 6.03651Z" fill="black"/>
</g>
<defs>
<filter id="filter0_d_10_31" x="0" y="0" width="20" height="20" filterUnits="userSpaceOnUse" color-interpolation-filters="sRGB">
<feFlood flood-opacity="0" result="BackgroundImageFix"/>
<feColorMatrix in="SourceAlpha" type="matrix" values="0 0 0 0 0 0 0 0 0 0 0 0 0 0 0 0 0 0 127 0" result="hardAlpha"/>
<feOffset dy="4"/>
<feGaussianBlur stdDeviation="2"/>
<feComposite in2="hardAlpha" operator="out"/>
<feColorMatrix type="matrix" values="0 0 0 0 0 0 0 0 0 0 0 0 0 0 0 0 0 0 0.25 0"/>
<feBlend mode="normal" in2="BackgroundImageFix" result="effect1_dropShadow_10_31"/>
<feBlend mode="normal" in="SourceGraphic" in2="effect1_dropShadow_10_31" result="shape"/>
</filter>
</defs>
</svg>
