<svg width="18" height="18" viewBox="0 0 18 18" fill="none" xmlns="http://www.w3.org/2000/svg">
<g filter="url(#filter0_d_10_33)">
<path d="M9.00112 2.43613C7.58226 2.43613 6.43781 3.58083 6.43781 5C6.43781 6.41917 7.58226 7.56387 9.00112 7.56387C10.42 7.56387 11.5644 6.41917 11.5644 5C11.5644 3.58083 10.42 2.43613 9.00112 2.43613ZM9.00112 6.66685C8.08422 6.66685 7.33463 5.91934 7.33463 5C7.33463 4.08067 8.08199 3.33315 9.00112 3.33315C9.92025 3.33315 10.6676 4.08067 10.6676 5C10.6676 5.91934 9.91801 6.66685 9.00112 6.66685ZM12.2671 2.33125C12.2671 2.66373 11.9994 2.92927 11.6693 2.92927C11.3369 2.92927 11.0714 2.6615 11.0714 2.33125C11.0714 2.001 11.3391 1.73324 11.6693 1.73324C11.9994 1.73324 12.2671 2.001 12.2671 2.33125ZM13.9649 2.93819C13.9269 2.13712 13.744 1.42754 13.1573 0.84291C12.5728 0.258284 11.8634 0.0753096 11.0625 0.0351445C10.237 -0.0117148 7.76297 -0.0117148 6.93753 0.0351445C6.13887 0.0730782 5.42945 0.256053 4.84272 0.840678C4.256 1.4253 4.07529 2.13489 4.03514 2.93596C3.98829 3.76158 3.98829 6.23619 4.03514 7.06181C4.07306 7.86288 4.256 8.57246 4.84272 9.15709C5.42945 9.74172 6.13664 9.92469 6.93753 9.96486C7.76297 10.0117 10.237 10.0117 11.0625 9.96486C11.8634 9.92692 12.5728 9.74395 13.1573 9.15709C13.7418 8.57246 13.9247 7.86288 13.9649 7.06181C14.0117 6.23619 14.0117 3.76381 13.9649 2.93819ZM12.8985 7.94767C12.7245 8.38503 12.3876 8.72197 11.9481 8.89825C11.29 9.15932 9.72839 9.09907 9.00112 9.09907C8.27384 9.09907 6.70998 9.15709 6.0541 8.89825C5.61684 8.7242 5.27998 8.38726 5.10374 7.94767C4.84272 7.28941 4.90296 5.72744 4.90296 5C4.90296 4.27256 4.84495 2.70836 5.10374 2.05233C5.27775 1.61497 5.61461 1.27803 6.0541 1.10175C6.71221 0.840678 8.27384 0.900926 9.00112 0.900926C9.72839 0.900926 11.2922 0.84291 11.9481 1.10175C12.3854 1.2758 12.7223 1.61274 12.8985 2.05233C13.1595 2.71059 13.0993 4.27256 13.0993 5C13.0993 5.72744 13.1595 7.29164 12.8985 7.94767Z" fill="black"/>
</g>
<defs>
<filter id="filter0_d_10_33" x="0" y="0" width="18" height="18" filterUnits="userSpaceOnUse" color-interpolation-filters="sRGB">
<feFlood flood-opacity="0" result="BackgroundImageFix"/>
<feColorMatrix in="SourceAlpha" type="matrix" values="0 0 0 0 0 0 0 0 0 0 0 0 0 0 0 0 0 0 127 0" result="hardAlpha"/>
<feOffset dy="4"/>
<feGaussianBlur stdDeviation="2"/>
<feComposite in2="hardAlpha" operator="out"/>
<feColorMatrix type="matrix" values="0 0 0 0 0 0 0 0 0 0 0 0 0 0 0 0 0 0 0.25 0"/>
<feBlend mode="normal" in2="BackgroundImageFix" result="effect1_dropShadow_10_33"/>
<feBlend mode="normal" in="SourceGraphic" in2="effect1_dropShadow_10_33" result="shape"/>
</filter>
</defs>
</svg>
