<svg width="18" height="18" viewBox="0 0 18 18" fill="none" xmlns="http://www.w3.org/2000/svg">
<g filter="url(#filter0_d_10_24)">
<path d="M13.2857 0H4.71205C4.3192 0 4 0.323661 4 0.720982V9.27902C4 9.67634 4.3192 10 4.71205 10H13.2857C13.6786 10 14 9.67634 14 9.27902V0.720982C14 0.323661 13.6786 0 13.2857 0ZM7.02232 8.57143H5.54018V3.79911H7.02455V8.57143H7.02232ZM6.28125 3.14732C5.8058 3.14732 5.42188 2.76116 5.42188 2.28795C5.42188 1.81473 5.8058 1.42857 6.28125 1.42857C6.75446 1.42857 7.14062 1.81473 7.14062 2.28795C7.14062 2.76339 6.7567 3.14732 6.28125 3.14732ZM12.5781 8.57143H11.096V6.25C11.096 5.69643 11.0848 4.98438 10.3259 4.98438C9.55357 4.98438 9.43527 5.58705 9.43527 6.20982V8.57143H7.95313V3.79911H9.375V4.45089H9.39509C9.59375 4.07589 10.0781 3.6808 10.7991 3.6808C12.2991 3.6808 12.5781 4.66964 12.5781 5.95536V8.57143Z" fill="black"/>
</g>
<defs>
<filter id="filter0_d_10_24" x="0" y="0" width="18" height="18" filterUnits="userSpaceOnUse" color-interpolation-filters="sRGB">
<feFlood flood-opacity="0" result="BackgroundImageFix"/>
<feColorMatrix in="SourceAlpha" type="matrix" values="0 0 0 0 0 0 0 0 0 0 0 0 0 0 0 0 0 0 127 0" result="hardAlpha"/>
<feOffset dy="4"/>
<feGaussianBlur stdDeviation="2"/>
<feComposite in2="hardAlpha" operator="out"/>
<feColorMatrix type="matrix" values="0 0 0 0 0 0 0 0 0 0 0 0 0 0 0 0 0 0 0.25 0"/>
<feBlend mode="normal" in2="BackgroundImageFix" result="effect1_dropShadow_10_24"/>
<feBlend mode="normal" in="SourceGraphic" in2="effect1_dropShadow_10_24" result="shape"/>
</filter>
</defs>
</svg>
