<svg width="18" height="18" viewBox="0 0 18 18" fill="none" xmlns="http://www.w3.org/2000/svg">
<g filter="url(#filter0_d_10_26)">
<path d="M12.9721 2.49218C12.9785 2.60155 12.9785 2.71094 12.9785 2.82031C12.9785 6.15623 10.9163 10 7.14722 10C5.98604 10 4.90737 9.58592 4 8.8672C4.16498 8.89062 4.3236 8.89844 4.49492 8.89844C5.45303 8.89844 6.33503 8.50001 7.03935 7.82032C6.13833 7.79688 5.38325 7.07032 5.12309 6.07031C5.25 6.09373 5.3769 6.10936 5.51016 6.10936C5.69417 6.10936 5.87819 6.0781 6.0495 6.02344C5.11041 5.78905 4.40608 4.77343 4.40608 3.54687V3.51563C4.67891 3.70313 4.9962 3.82032 5.33247 3.83593C4.78043 3.38279 4.41877 2.60936 4.41877 1.73436C4.41877 1.26562 4.52028 0.835928 4.69795 0.460926C5.70684 1.99217 7.22335 2.99216 8.92385 3.10155C8.89213 2.91405 8.87309 2.71876 8.87309 2.52344C8.87309 1.1328 9.7868 0 10.9226 0C11.5127 0 12.0457 0.304687 12.4201 0.796875C12.8832 0.687505 13.3274 0.476557 13.7208 0.187501C13.5685 0.773452 13.2449 1.26564 12.8198 1.57812C13.2322 1.52346 13.632 1.3828 14 1.18751C13.7209 1.68749 13.3719 2.13278 12.9721 2.49218Z" fill="black"/>
</g>
<defs>
<filter id="filter0_d_10_26" x="0" y="0" width="18" height="18" filterUnits="userSpaceOnUse" color-interpolation-filters="sRGB">
<feFlood flood-opacity="0" result="BackgroundImageFix"/>
<feColorMatrix in="SourceAlpha" type="matrix" values="0 0 0 0 0 0 0 0 0 0 0 0 0 0 0 0 0 0 127 0" result="hardAlpha"/>
<feOffset dy="4"/>
<feGaussianBlur stdDeviation="2"/>
<feComposite in2="hardAlpha" operator="out"/>
<feColorMatrix type="matrix" values="0 0 0 0 0 0 0 0 0 0 0 0 0 0 0 0 0 0 0.25 0"/>
<feBlend mode="normal" in2="BackgroundImageFix" result="effect1_dropShadow_10_26"/>
<feBlend mode="normal" in="SourceGraphic" in2="effect1_dropShadow_10_26" result="shape"/>
</filter>
</defs>
</svg>
